<svg width="49" height="40" viewBox="0 0 49 40" fill="none" xmlns="http://www.w3.org/2000/svg">
<mask id="path-1-inside-1_8_107" fill="white">
<path d="M29 40C34.3043 40 39.3914 37.8929 43.1421 34.1421C46.8929 30.3914 49 25.3043 49 20C49 14.6957 46.8929 9.60859 43.1421 5.85787C39.3914 2.10714 34.3043 8.00932e-07 29 0L29 20V40Z"/>
</mask>
<path d="M29 40C34.3043 40 39.3914 37.8929 43.1421 34.1421C46.8929 30.3914 49 25.3043 49 20C49 14.6957 46.8929 9.60859 43.1421 5.85787C39.3914 2.10714 34.3043 8.00932e-07 29 0L29 20V40Z" stroke="#8CE16E" stroke-width="6" mask="url(#path-1-inside-1_8_107)"/>
<circle cx="20" cy="20" r="18.5" stroke="white" stroke-width="3"/>
</svg>
